<?xml version="1.0" encoding="UTF-8" standalone="no"?>
<!-- Created with Inkscape (http://www.inkscape.org/) -->

<svg
   xmlns:svg="http://www.w3.org/2000/svg"
   xmlns="http://www.w3.org/2000/svg"
   version="1.1"
   width="40"
   height="40"
   id="svg2">
  <defs
     id="defs4" />
  <g
     transform="translate(-4223,1209)"
     id="layer1">
    <path
       d="M 20,0 C 8.9543,0 0,8.9543 0,20 0,21.793 0.24453,23.534 0.6875,25.187 1.0173,25.083 1.3544,25 1.7188,25 c 1.9071,0 3.4374,1.562 3.4374,3.469 0,1.232 -0.6231,2.295 -1.5937,2.906 C 7.1722,36.588 13.179,40 20,40 c 3.968,0 7.671,-1.163 10.781,-3.156 -0.522,-0.773 -0.844,-1.716 -0.844,-2.719 0,-2.675 2.169,-4.844 4.844,-4.844 0.937,0 1.821,0.258 2.563,0.719 C 39.042,27.06 40,23.639 40,20 40,8.9543 31.046,0 20,0 z m 16.406,12.938 c 1.381,0 2.5,1.119 2.5,2.5 0,1.38 -1.119,2.499 -2.5,2.499 -1.38,0 -2.5,-1.119 -2.5,-2.499 0,-1.381 1.12,-2.5 2.5,-2.5 z"
       transform="translate(4223,-1209)"
       id="path3667"
       style="fill:#502728;fill-opacity:1;stroke:none" />
    <path
       d="M 20,2.5312 C 10.304,2.5312 2.5,10.356 2.5,20 c 0,1.901 0.3137,3.724 0.875,5.437 0.7919,0.32 1.8378,1.596 1.7812,3.032 -0.011,0.23 -0.026,0.458 -0.062,0.687 3.0772,4.977 8.5933,8.313 14.9063,8.313 3.692,0 7.12,-1.156 9.937,-3.094 -0.153,-2.645 2.005,-5.132 4.876,-5.094 1.699,-2.695 2.687,-5.86 2.687,-9.281 0,-0.764 -0.06,-1.512 -0.156,-2.25 -0.289,0.12 -0.608,0.187 -0.938,0.187 -1.38,0 -2.5,-1.119 -2.5,-2.499 0,-1.252 0.924,-2.287 2.125,-2.469 C 33.328,6.8233 27.182,2.5312 20,2.5312 z m -0.219,2.9063 c 1.148,-0.022 2.402,0.1635 3.469,0.5 4.188,1.3209 6.987,4.3525 8.125,8.7505 0.369,1.425 0.534,3.811 0.312,4.874 -0.32,1.537 -1.509,3.25 -2.875,4.157 -0.613,0.407 -0.67,0.493 -0.593,0.781 0.05,0.176 0.108,0.527 0.125,0.781 0.02,0.314 0.133,0.581 0.375,0.844 0.746,0.812 0.968,1.757 0.531,2.312 -0.349,0.445 -0.937,0.5 -2.125,0.25 -0.93,-0.195 -1.034,-0.183 -1.75,0 -0.423,0.109 -0.79,0.228 -0.813,0.25 -0.02,0.02 0.215,0.06 0.532,0.09 0.709,0.08 1.039,0.444 1.218,1.281 0.205,0.953 0.05,1.325 -0.718,1.719 l -0.469,0.25 0.06,0.625 c 0.09,0.786 -0.121,1.31 -0.656,1.532 -0.741,0.307 -1.266,-0.05 -2.094,-1.469 -0.461,-0.789 -1,-1.255 -2.093,-1.813 -0.355,-0.181 -0.413,-0.182 -1.032,0.156 -1.045,0.572 -1.432,0.916 -1.843,1.688 -0.214,0.401 -0.587,0.924 -0.844,1.156 -0.496,0.448 -0.843,0.511 -1.312,0.25 -0.439,-0.243 -0.589,-0.666 -0.594,-1.5 -0,-0.695 -0.04,-0.745 -0.313,-0.812 C 14.246,32.054 14,31.854 13.844,31.687 13.612,31.441 13.55,31.285 13.563,30.75 13.592,29.539 14.031,29.027 15.031,29 L 15.5,28.969 14.813,28.75 c -0.836,-0.279 -1.123,-0.272 -2.063,-0.03 -1.361,0.348 -2.281,-0.04 -2.281,-0.938 0,-0.524 0.347,-1.349 0.719,-1.687 0.244,-0.224 0.35,-0.459 0.406,-0.907 0.04,-0.333 0.09,-0.71 0.125,-0.843 0.05,-0.187 -0.05,-0.329 -0.438,-0.563 C 10.091,23.061 8.9022,21.544 8.4375,20.156 8.1168,19.199 8.1545,16.519 8.5,15 9.4525,10.812 12.046,7.7288 15.844,6.2812 17.273,5.7365 17.719,5.6346 19.031,5.5 c 0.253,-0.026 0.485,-0.057 0.75,-0.062 z"
       transform="translate(4223,-1209)"
       id="path3671"
       style="fill:#671819;fill-opacity:1;stroke:none" />
    <path
       d="M 20,1.2188 C 9.6238,1.2188 1.2188,9.6237 1.2188,20 c 0,1.74 0.2445,3.432 0.6875,5.031 0.528,0.03 1.0302,0.166 1.4687,0.406 C 2.8137,23.724 2.5,21.901 2.5,20 2.5,10.356 10.304,2.5312 20,2.5312 c 7.182,0 13.328,4.2921 16.031,10.4378 0.53,-0.08 1.116,0.08 1.5,0.25 C 34.808,6.2008 27.98,1.2188 20,1.2188 z m 0.156,4.8437 c -2.912,0.029 -5.743,1.1389 -7.843,3.1562 -2.058,2.1093 -3.1553,4.6753 -3.3755,7.8433 -0.2471,2.105 0.457,3.973 1.9375,5.438 1.32,1.252 2.809,1.885 4.781,2.062 1.195,0.108 1.312,0.171 1.563,0.844 0.269,0.722 0.608,1.109 1.093,1.25 0.516,0.15 0.668,0.134 1.219,-0.06 0.42,-0.15 0.539,-0.126 1,0.03 1.033,0.35 1.899,-0.1 2.25,-1.156 0.231,-0.694 0.376,-0.76 2.031,-0.969 3,-0.379 5.268,-2.121 6.032,-4.594 0.459,-1.487 0.29,-4.14 -0.407,-6.187 C 29.787,11.807 28.463,9.7804 27.187,8.7187 25.093,6.9756 22.648,6.0814 20.156,6.0625 z m -4.562,4.3755 c 1.531,0.138 1.985,1.669 2.468,2.906 0.542,1.59 0.651,3.539 0.282,4.968 -0.164,0.635 -0.71,1.16 -1.407,1.313 -0.857,0.188 -1.933,0.227 -2.687,0.125 -1.74,-0.236 -2.309,-0.602 -2.625,-1.688 -0.382,-1.315 0.03,-3.968 0.844,-5.499 0.686,-1.243 1.694,-2.083 3.125,-2.125 z m 8.843,0.03 c 1.337,0.01 2.029,0.737 2.75,1.5 0.869,1.22 1.441,3.388 1.344,5.187 -0.06,1.07 -0.378,1.876 -0.844,2.125 -0.782,0.419 -2.872,0.656 -4.062,0.469 -1.438,-0.226 -1.902,-0.763 -2.094,-2.438 -0.197,-1.721 0.09,-3.439 0.906,-5.156 0.536,-1.13 1.196,-1.674 2,-1.687 z M 16.5,15.031 c -0.268,0 -0.554,0.09 -0.812,0.313 -0.501,0.421 -0.719,0.978 -0.719,1.781 0,0.774 0.287,1.37 0.844,1.75 0.504,0.345 0.825,0.347 1.343,0 C 17.705,18.509 18,17.913 18,17.125 18,16.324 17.782,15.765 17.281,15.344 17.023,15.126 16.768,15.031 16.5,15.031 z m 6.969,0 c -0.674,0 -1.356,0.772 -1.532,1.719 -0.106,0.571 0.102,1.307 0.5,1.781 0.531,0.63 1.099,0.754 1.719,0.375 0.484,-0.295 0.879,-1.118 0.875,-1.812 -0,-1.061 -0.763,-2.061 -1.562,-2.063 z M 38.5,16.75 c -0.277,0.444 -0.667,0.8 -1.156,1 0.09,0.738 0.156,1.486 0.156,2.25 0,3.421 -0.988,6.586 -2.687,9.281 0.483,0 0.966,0.08 1.406,0.219 1.633,-2.785 2.562,-6.038 2.562,-9.5 0,-1.106 -0.1,-2.196 -0.281,-3.25 z m -21.688,0.344 c 0.493,0.07 0.471,0.545 0.375,0.906 -0.149,0.329 -0.395,0.386 -0.625,0.156 -0.312,-0.38 -0.09,-1.048 0.25,-1.062 z m 6.313,0.03 c 0.403,0.05 0.403,0.553 0.312,0.906 -0.109,0.296 -0.338,0.349 -0.562,0.125 -0.321,-0.321 -0.07,-1.066 0.25,-1.031 z m -10.969,7 c -0.266,0 -0.383,0.498 -0.218,0.969 0.188,0.541 0.158,0.564 -0.282,0.75 -0.619,0.262 -0.875,0.659 -0.875,1.281 0,0.451 0.08,0.589 0.375,0.844 0.34,0.292 0.379,0.307 1.25,0.218 1.978,-0.2 2.525,-0.159 3.938,0.407 0.721,0.289 1.259,0.59 1.218,0.656 -1.158,0.235 -2.394,-0.422 -3.499,0.09 -0.654,0.614 -0.417,1.672 0.437,2.031 0.518,0.217 0.555,0.361 0.344,0.969 -0.255,0.731 0.434,1.582 1.281,1.594 0.802,-0.184 1.174,-0.987 1.562,-1.657 0.3,-0.595 0.526,-0.806 1.219,-1.281 0.463,-0.317 0.947,-0.594 1.063,-0.594 0.115,0 0.605,0.298 1.093,0.625 0.776,0.519 0.93,0.681 1.219,1.313 0.185,0.402 0.542,0.911 0.813,1.156 0.648,0.586 1.081,0.575 1.656,0 0.371,-0.371 0.427,-0.479 0.375,-0.875 -0.104,-0.576 -0.312,-0.82 0.187,-1.156 0.93,-0.389 1.25,-1.469 0.625,-2.094 -0.333,-0.334 -0.477,-0.34 -2.812,-0.09 -1.019,0.108 -0.974,-0.08 0.125,-0.531 2.926,-1.099 3.112,-0.823 4.344,-0.563 0.907,0.08 0.947,0.08 1.25,-0.25 0.224,-0.241 0.312,-0.47 0.312,-0.812 0,-0.663 -0.183,-0.94 -0.812,-1.219 -0.427,-0.189 -0.509,-0.279 -0.438,-0.437 0.05,-0.112 0.1,-0.436 0.125,-0.719 0.07,-0.641 -0.107,-0.75 -0.844,-0.469 -0.793,0.288 -1.621,0.277 -2.125,1 -0.202,0.368 -0.553,0.69 -1.281,1.156 -1.401,0.9 -3.411,1.938 -3.781,1.938 -0.395,0 -2.881,-1.263 -4,-2.031 -0.537,-0.369 -0.94,-0.774 -1.094,-1.063 -0.187,-0.353 -0.343,-0.462 -0.718,-0.562 -0.683,-0.195 -1.338,-0.444 -2.032,-0.594 z m -7.0623,5.031 c -0.1083,0.53 -0.3359,0.996 -0.6562,1.406 3.3788,4.981 9.0905,8.219 15.5625,8.219 3.788,0 7.299,-1.134 10.25,-3.062 -0.151,-0.43 -0.289,-0.869 -0.313,-1.344 -2.817,1.938 -6.245,3.094 -9.937,3.094 -6.313,0 -11.8291,-3.336 -14.9063,-8.313 z"
       transform="translate(4223,-1209)"
       id="path3675"
       style="fill:#ffffff;fill-opacity:1;stroke:none" />
  </g>
</svg>
